<svg data-v-423bf9ae="" xmlns="http://www.w3.org/2000/svg" viewBox="0 0 100 100" class="iconLeft"><!----><!----><!----><g data-v-423bf9ae="" id="72bc5810-a4a3-42af-a8d1-7c6368388edb" transform="matrix(1.1084016072860627,0,0,1.1084016072860627,-5.451229817537104,-10.012470615073283)" stroke="none" fill="black"><path d="M35.784 45.171a2.984 2.984 0 1 0-.001 5.969 2.984 2.984 0 0 0 .001-5.969zm29.034 0a2.984 2.984 0 1 0 0 5.968 2.984 2.984 0 0 0 0-5.968zM89.4 14.458c-3.6-3.36-8.541-5.121-13.928-5.118l-.217.003c-.113-.003-.205-.001-.268-.001-5.387-.005-10.328 1.755-13.93 5.118a17.017 17.017 0 0 0-3.139 3.968 29.346 29.346 0 0 0-7.64-1.136 29.49 29.49 0 0 0-7.846 1.191 16.963 16.963 0 0 0-3.174-4.023c-3.6-3.362-8.542-5.121-13.928-5.118-.065 0-.155-.002-.27.001l-.214-.001c-5.388-.003-10.332 1.755-13.931 5.116-3.608 3.354-5.78 8.292-5.771 14.256v.029c.016 8.428 4.391 15.685 10.858 19.207a40.504 40.504 0 0 0-1.103 7.112c-.042.67-.061 1.341-.061 2.006.002 18.465 15.567 33.323 35.412 33.47 19.875-.146 35.439-15.005 35.441-33.47 0-.665-.02-1.331-.059-2.006l-1.789.108-1.787.107c.037.598.053 1.194.053 1.79.002 16.353-13.781 29.715-31.859 29.888-18.05-.173-31.833-13.535-31.831-29.888 0-.596.018-1.19.057-1.782.996-17.405 15.538-34.418 31.804-34.414 16.236-.004 30.781 17.009 31.777 34.406l3.576-.216c-.153-2.43-.54-4.85-1.133-7.224 6.363-3.559 10.658-10.75 10.672-19.095v-.03c.01-5.962-2.162-10.9-5.772-14.254zM21.665 34.803c-1.778-1.223-3.012-3.4-3.026-6.077l.003-.012c.084-4.085 2.563-6.075 6.337-6.189h.081l.067.003.07-.005v.002c2.312.07 4.124.864 5.204 2.404-3.37 2.754-6.331 6.114-8.736 9.874zm11.627-12.015a8.577 8.577 0 0 0-1.105-1.26c-1.84-1.716-4.335-2.588-6.989-2.585-.014 0-.059-.001-.137.001l-.082-.001c-2.656-.002-5.151.87-6.991 2.585-1.831 1.696-2.924 4.212-2.928 7.123l-.002.075c.006 3.873 1.894 7.303 4.79 9.19a44.23 44.23 0 0 0-2.807 6.495c-4.91-2.994-8.286-8.737-8.313-15.627l.002-.03v-.04c.085-10.134 6.879-15.677 16.118-15.791.062 0 .133 0 .216.002h.044l.046-.002h.178c5.954.073 10.875 2.419 13.654 6.784a34.004 34.004 0 0 0-5.694 3.081zm45.51 11.916c-2.428-3.773-5.413-7.143-8.812-9.895 1.094-1.461 2.873-2.217 5.132-2.284l.002-.003.07.005.066-.002h.078c3.773.112 6.254 2.105 6.338 6.189h.004l-.004.011c-.013 2.603-1.176 4.738-2.874 5.979zm12.788-5.96c-.014 6.825-3.311 12.537-8.134 15.568a44.31 44.31 0 0 0-2.842-6.523c2.806-1.908 4.637-5.263 4.646-9.064v-.011c.012-2.938-1.084-5.478-2.932-7.186-1.84-1.718-4.334-2.589-6.99-2.587l-.084.001c-.074-.003-.121-.001-.133-.001-2.656-.002-5.152.869-6.988 2.587a8.443 8.443 0 0 0-1.028 1.163 34.071 34.071 0 0 0-5.722-3.058c2.787-4.317 7.685-6.639 13.605-6.712.088 0 .146 0 .178.002h.09l.217-.002c9.236.115 16.033 5.658 16.117 15.792v.031zM50.326 45.368l-.062.001-.06-.001c-3.204-.008-6.134 1.501-8.155 3.969-2.018 2.448-3.199 5.817-3.217 9.682-.005.073-.003.102-.003.104-.005 3.89 1.207 7.112 3.3 9.335 2.079 2.224 4.98 3.38 8.034 3.38h.148l.046-.004c3.057.004 5.963-1.152 8.045-3.376 2.094-2.226 3.305-5.445 3.301-9.335v-.003h.002c0-3.91-1.186-7.313-3.221-9.783-2.025-2.468-4.955-3.978-8.158-3.969zm7.795 13.754c-.117 6.308-3.461 9.03-7.782 9.131-.042 0-.076 0-.103.002h-.044c-4.32-.103-7.665-2.827-7.782-9.133v-.003c.059-6.41 3.703-10.148 7.774-10.171l.029.002.102-.002h.011c4.078.01 7.738 3.749 7.795 10.171v.003z"></path></g><!----><!----></svg>