<svg data-v-423bf9ae="" xmlns="http://www.w3.org/2000/svg" viewBox="0 0 550 90" class="iconLeft"><!----><!----><!----><g data-v-423bf9ae="" id="53e0bf61-988a-45f9-91af-1603a0997914" fill="white" transform="matrix(6.4516127709088735,0,0,6.4516127709088735,112.49691607186872,6.22580832741221)"><path d="M4.63 10.50L1.13 10.50L1.13 1.36L4.63 1.36L4.63 1.36Q5.66 1.36 6.47 1.71L6.47 1.71L6.47 1.71Q7.28 2.06 7.85 2.67L7.85 2.67L7.85 2.67Q8.41 3.28 8.72 4.11L8.72 4.11L8.72 4.11Q9.03 4.94 9.03 5.92L9.03 5.92L9.03 5.92Q9.03 6.92 8.72 7.75L8.72 7.75L8.72 7.75Q8.41 8.58 7.85 9.20L7.85 9.20L7.85 9.20Q7.28 9.81 6.47 10.16L6.47 10.16L6.47 10.16Q5.66 10.50 4.63 10.50L4.63 10.50ZM3.12 2.91L3.12 8.95L4.34 8.95L4.34 8.95Q4.97 8.95 5.45 8.71L5.45 8.71L5.45 8.71Q5.94 8.48 6.27 8.09L6.27 8.09L6.27 8.09Q6.59 7.69 6.77 7.13L6.77 7.13L6.77 7.13Q6.94 6.58 6.94 5.92L6.94 5.92L6.94 5.92Q6.94 5.28 6.77 4.72L6.77 4.72L6.77 4.72Q6.59 4.17 6.27 3.77L6.27 3.77L6.27 3.77Q5.94 3.37 5.45 3.14L5.45 3.14L5.45 3.14Q4.97 2.91 4.34 2.91L4.34 2.91L3.12 2.91ZM13.96 3.12L13.96 3.12L13.96 3.12Q14.52 3.12 15.18 3.29L15.18 3.29L15.18 3.29Q15.83 3.46 16.41 3.88L16.41 3.88L16.41 3.88Q16.98 4.30 17.37 5.03L17.37 5.03L17.37 5.03Q17.75 5.75 17.75 6.89L17.75 6.89L17.75 6.89Q17.75 8.02 17.37 8.75L17.37 8.75L17.37 8.75Q16.98 9.48 16.41 9.90L16.41 9.90L16.41 9.90Q15.83 10.32 15.18 10.49L15.18 10.49L15.18 10.49Q14.52 10.65 13.96 10.65L13.96 10.65L13.96 10.65Q13.40 10.65 12.74 10.49L12.74 10.49L12.74 10.49Q12.08 10.32 11.52 9.90L11.52 9.90L11.52 9.90Q10.95 9.48 10.57 8.75L10.57 8.75L10.57 8.75Q10.19 8.02 10.19 6.89L10.19 6.89L10.19 6.89Q10.19 5.75 10.57 5.03L10.57 5.03L10.57 5.03Q10.95 4.30 11.52 3.88L11.52 3.88L11.52 3.88Q12.08 3.46 12.74 3.29L12.74 3.29L12.74 3.29Q13.40 3.12 13.96 3.12ZM13.96 9.25L13.96 9.25L13.96 9.25Q14.74 9.25 15.27 8.64L15.27 8.64L15.27 8.64Q15.79 8.02 15.79 6.89L15.79 6.89L15.79 6.89Q15.79 5.75 15.27 5.14L15.27 5.14L15.27 5.14Q14.74 4.54 13.96 4.54L13.96 4.54L13.96 4.54Q13.20 4.54 12.68 5.14L12.68 5.14L12.68 5.14Q12.17 5.75 12.17 6.89L12.17 6.89L12.17 6.89Q12.17 7.45 12.31 7.89L12.31 7.89L12.31 7.89Q12.45 8.33 12.68 8.63L12.68 8.63L12.68 8.63Q12.92 8.93 13.25 9.09L13.25 9.09L13.25 9.09Q13.58 9.25 13.96 9.25ZM22.53 3.12L22.53 3.12L22.53 3.12Q22.96 3.12 23.30 3.18L23.30 3.18L23.30 3.18Q23.63 3.23 23.87 3.30L23.87 3.30L23.87 3.30Q24.14 3.39 24.36 3.49L24.36 3.49L24.36 4.82L24.36 4.82Q23.81 4.65 23.18 4.59L23.18 4.59L23.18 4.59Q22.54 4.54 21.99 4.74L21.99 4.74L21.99 4.74Q21.45 4.94 21.08 5.45L21.08 5.45L21.08 5.45Q20.72 5.95 20.72 6.89L20.72 6.89L20.72 6.89Q20.72 7.87 21.08 8.38L21.08 8.38L21.08 8.38Q21.45 8.89 21.99 9.06L21.99 9.06L21.99 9.06Q22.54 9.24 23.18 9.15L23.18 9.15L23.18 9.15Q23.81 9.06 24.36 8.85L24.36 8.85L24.36 10.23L24.36 10.23Q24.15 10.36 23.87 10.44L23.87 10.44L23.87 10.44Q23.63 10.53 23.29 10.59L23.29 10.59L23.29 10.59Q22.95 10.65 22.51 10.65L22.51 10.65L22.51 10.65Q21.97 10.65 21.31 10.51L21.31 10.51L21.31 10.51Q20.65 10.37 20.08 9.97L20.08 9.97L20.08 9.97Q19.52 9.56 19.14 8.83L19.14 8.83L19.14 8.83Q18.76 8.09 18.76 6.89L18.76 6.89L18.76 6.89Q18.76 5.70 19.14 4.96L19.14 4.96L19.14 4.96Q19.52 4.21 20.08 3.81L20.08 3.81L20.08 3.81Q20.65 3.40 21.31 3.26L21.31 3.26L21.31 3.26Q21.97 3.12 22.53 3.12ZM30.46 3.98L29.83 5.39L29.83 5.39Q29.36 5.03 28.80 4.84L28.80 4.84L28.80 4.84Q28.24 4.66 27.86 4.66L27.86 4.66L27.86 4.66Q27.50 4.66 27.29 4.79L27.29 4.79L27.29 4.79Q27.08 4.91 27.08 5.24L27.08 5.24L27.08 5.24Q27.08 5.52 27.34 5.68L27.34 5.68L27.34 5.68Q27.61 5.85 28 6.00L28 6.00L28 6.00Q28.39 6.15 28.85 6.31L28.85 6.31L28.85 6.31Q29.32 6.47 29.71 6.73L29.71 6.73L29.71 6.73Q30.10 6.99 30.37 7.38L30.37 7.38L30.37 7.38Q30.63 7.78 30.63 8.40L30.63 8.40L30.63 8.40Q30.63 8.99 30.42 9.41L30.42 9.41L30.42 9.41Q30.20 9.84 29.84 10.12L29.84 10.12L29.84 10.12Q29.48 10.39 29.02 10.52L29.02 10.52L29.02 10.52Q28.56 10.65 28.07 10.65L28.07 10.65L28.07 10.65Q27.72 10.65 27.32 10.58L27.32 10.58L27.32 10.58Q26.92 10.50 26.54 10.34L26.54 10.34L26.54 10.34Q26.15 10.18 25.80 9.95L25.80 9.95L25.80 9.95Q25.44 9.72 25.17 9.42L25.17 9.42L25.79 8.05L25.79 8.05Q26.28 8.58 26.84 8.86L26.84 8.86L26.84 8.86Q27.40 9.13 27.86 9.13L27.86 9.13L27.86 9.13Q28.25 9.13 28.62 8.99L28.62 8.99L28.62 8.99Q28.98 8.85 28.99 8.51L28.99 8.51L28.99 8.51Q29.01 8.19 28.75 7.99L28.75 7.99L28.75 7.99Q28.49 7.78 28.10 7.63L28.10 7.63L28.10 7.63Q27.71 7.48 27.24 7.31L27.24 7.31L27.24 7.31Q26.78 7.15 26.39 6.90L26.39 6.90L26.39 6.90Q26.00 6.65 25.73 6.27L25.73 6.27L25.73 6.27Q25.47 5.89 25.48 5.29L25.48 5.29L25.48 5.29Q25.48 4.72 25.68 4.30L25.68 4.30L25.68 4.30Q25.89 3.89 26.22 3.63L26.22 3.63L26.22 3.63Q26.56 3.37 27.00 3.25L27.00 3.25L27.00 3.25Q27.44 3.12 27.92 3.12L27.92 3.12L27.92 3.12Q28.20 3.12 28.53 3.18L28.53 3.18L28.53 3.18Q28.87 3.23 29.21 3.35L29.21 3.35L29.21 3.35Q29.55 3.46 29.88 3.61L29.88 3.61L29.88 3.61Q30.21 3.77 30.46 3.98L30.46 3.98ZM36.65 5.95L39.91 10.50L37.74 10.50L35.10 6.71L34.19 6.71L34.19 10.50L32.33 10.50L32.33 1.36L34.19 1.36L34.19 5.15L35.11 5.15L37.62 1.36L39.82 1.36L36.65 5.95ZM44.32 3.12L44.32 3.12L44.32 3.12Q44.88 3.12 45.54 3.29L45.54 3.29L45.54 3.29Q46.20 3.46 46.77 3.88L46.77 3.88L46.77 3.88Q47.35 4.30 47.73 5.03L47.73 5.03L47.73 5.03Q48.12 5.75 48.12 6.89L48.12 6.89L48.12 6.89Q48.12 8.02 47.73 8.75L47.73 8.75L47.73 8.75Q47.35 9.48 46.77 9.90L46.77 9.90L46.77 9.90Q46.20 10.32 45.54 10.49L45.54 10.49L45.54 10.49Q44.88 10.65 44.32 10.65L44.32 10.65L44.32 10.65Q43.76 10.65 43.11 10.49L43.11 10.49L43.11 10.49Q42.45 10.32 41.88 9.90L41.88 9.90L41.88 9.90Q41.31 9.48 40.94 8.75L40.94 8.75L40.94 8.75Q40.56 8.02 40.56 6.89L40.56 6.89L40.56 6.89Q40.56 5.75 40.94 5.03L40.94 5.03L40.94 5.03Q41.31 4.30 41.88 3.88L41.88 3.88L41.88 3.88Q42.45 3.46 43.11 3.29L43.11 3.29L43.11 3.29Q43.76 3.12 44.32 3.12ZM44.32 9.25L44.32 9.25L44.32 9.25Q45.11 9.25 45.63 8.64L45.63 8.64L45.63 8.64Q46.16 8.02 46.16 6.89L46.16 6.89L46.16 6.89Q46.16 5.75 45.63 5.14L45.63 5.14L45.63 5.14Q45.11 4.54 44.32 4.54L44.32 4.54L44.32 4.54Q43.57 4.54 43.05 5.14L43.05 5.14L43.05 5.14Q42.53 5.75 42.53 6.89L42.53 6.89L42.53 6.89Q42.53 7.45 42.67 7.89L42.67 7.89L42.67 7.89Q42.81 8.33 43.05 8.63L43.05 8.63L43.05 8.63Q43.29 8.93 43.62 9.09L43.62 9.09L43.62 9.09Q43.95 9.25 44.32 9.25ZM52.35 3.12L52.35 3.12L52.35 3.12Q52.81 3.12 53.34 3.27L53.34 3.27L53.34 3.27Q53.87 3.42 54.33 3.75L54.33 3.75L54.33 3.75Q54.80 4.07 55.09 4.59L55.09 4.59L55.09 4.59Q55.38 5.11 55.37 5.85L55.37 5.85L55.37 10.50L54.00 10.50L54.00 10.50Q54.00 10.50 53.96 10.33L53.96 10.33L53.96 10.33Q53.91 10.16 53.87 9.95L53.87 9.95L53.87 9.95Q53.82 9.74 53.77 9.58L53.77 9.58L53.77 9.58Q53.73 9.42 53.73 9.44L53.73 9.44L53.73 9.44Q53.54 9.79 53.21 10.05L53.21 10.05L53.21 10.05Q52.93 10.29 52.49 10.47L52.49 10.47L52.49 10.47Q52.05 10.65 51.41 10.65L51.41 10.65L51.41 10.65Q50.96 10.65 50.53 10.52L50.53 10.52L50.53 10.52Q50.09 10.39 49.75 10.13L49.75 10.13L49.75 10.13Q49.41 9.87 49.19 9.48L49.19 9.48L49.19 9.48Q48.97 9.09 48.96 8.57L48.96 8.57L48.96 8.57Q48.93 8.02 49.10 7.59L49.10 7.59L49.10 7.59Q49.28 7.17 49.61 6.86L49.61 6.86L49.61 6.86Q49.94 6.55 50.40 6.36L50.40 6.36L50.40 6.36Q50.86 6.17 51.41 6.10L51.41 6.10L51.41 6.10Q51.93 6.03 52.54 6.03L52.54 6.03L52.54 6.03Q53.16 6.03 53.65 6.06L53.65 6.06L53.65 5.84L53.65 5.84Q53.65 5.24 53.38 4.93L53.38 4.93L53.38 4.93Q53.12 4.63 52.72 4.54L52.72 4.54L52.72 4.54Q52.32 4.45 51.84 4.52L51.84 4.52L51.84 4.52Q51.37 4.59 50.93 4.72L50.93 4.72L50.93 4.72Q50.50 4.86 50.17 5.00L50.17 5.00L50.17 5.00Q49.84 5.15 49.76 5.22L49.76 5.22L49.76 3.81L49.76 3.81Q49.77 3.79 50.01 3.69L50.01 3.69L50.01 3.69Q50.25 3.58 50.61 3.46L50.61 3.46L50.61 3.46Q50.97 3.33 51.43 3.23L51.43 3.23L51.43 3.23Q51.88 3.12 52.35 3.12ZM53.24 8.68L53.24 8.68L53.24 8.68Q53.48 8.37 53.56 7.99L53.56 7.99L53.56 7.99Q53.63 7.62 53.63 7.20L53.63 7.20L52.82 7.20L52.82 7.20Q52.50 7.20 52.14 7.24L52.14 7.24L52.14 7.24Q51.77 7.28 51.46 7.41L51.46 7.41L51.46 7.41Q51.16 7.53 50.95 7.78L50.95 7.78L50.95 7.78Q50.74 8.02 50.74 8.44L50.74 8.44L50.74 8.44Q50.74 8.90 51.08 9.11L51.08 9.11L51.08 9.11Q51.42 9.32 51.93 9.32L51.93 9.32L51.93 9.32Q52.36 9.32 52.69 9.15L52.69 9.15L52.69 9.15Q53.02 8.97 53.24 8.68ZM59.05 8.48L59.05 8.48L59.05 8.48Q59.07 8.72 59.18 8.86L59.18 8.86L59.18 8.86Q59.29 9.00 59.45 9.06L59.45 9.06L59.45 9.06Q59.61 9.13 59.81 9.13L59.81 9.13L59.81 9.13Q60.02 9.14 60.24 9.11L60.24 9.11L60.24 10.56L60.24 10.56Q60.05 10.60 59.90 10.62L59.90 10.62L59.90 10.62Q59.75 10.64 59.64 10.65L59.64 10.65L59.64 10.65Q59.51 10.67 59.43 10.65L59.43 10.65L59.43 10.65Q58.90 10.65 58.48 10.61L58.48 10.61L58.48 10.61Q58.06 10.57 57.76 10.34L57.76 10.34L57.76 10.34Q57.47 10.11 57.32 9.64L57.32 9.64L57.32 9.64Q57.16 9.17 57.16 8.30L57.16 8.30L57.16 1.55L59.05 1.55L59.05 8.48ZM64.74 3.12L64.74 3.12L64.74 3.12Q65.20 3.12 65.73 3.27L65.73 3.27L65.73 3.27Q66.26 3.42 66.72 3.75L66.72 3.75L66.72 3.75Q67.19 4.07 67.48 4.59L67.48 4.59L67.48 4.59Q67.77 5.11 67.76 5.85L67.76 5.85L67.76 10.50L66.39 10.50L66.39 10.50Q66.39 10.50 66.35 10.33L66.35 10.33L66.35 10.33Q66.30 10.16 66.25 9.95L66.25 9.95L66.25 9.95Q66.21 9.74 66.16 9.58L66.16 9.58L66.16 9.58Q66.12 9.42 66.12 9.44L66.12 9.44L66.12 9.44Q65.93 9.79 65.60 10.05L65.60 10.05L65.60 10.05Q65.32 10.29 64.88 10.47L64.88 10.47L64.88 10.47Q64.44 10.65 63.80 10.65L63.80 10.65L63.80 10.65Q63.35 10.65 62.92 10.52L62.92 10.52L62.92 10.52Q62.48 10.39 62.14 10.13L62.14 10.13L62.14 10.13Q61.80 9.87 61.58 9.48L61.58 9.48L61.58 9.48Q61.36 9.09 61.35 8.57L61.35 8.57L61.35 8.57Q61.32 8.02 61.49 7.59L61.49 7.59L61.49 7.59Q61.67 7.17 62.00 6.86L62.00 6.86L62.00 6.86Q62.33 6.55 62.79 6.36L62.79 6.36L62.79 6.36Q63.25 6.17 63.80 6.10L63.80 6.10L63.80 6.10Q64.32 6.03 64.93 6.03L64.93 6.03L64.93 6.03Q65.55 6.03 66.04 6.06L66.04 6.06L66.04 5.84L66.04 5.84Q66.04 5.24 65.77 4.93L65.77 4.93L65.77 4.93Q65.51 4.63 65.11 4.54L65.11 4.54L65.11 4.54Q64.71 4.45 64.23 4.52L64.23 4.52L64.23 4.52Q63.76 4.59 63.32 4.72L63.32 4.72L63.32 4.72Q62.89 4.86 62.56 5.00L62.56 5.00L62.56 5.00Q62.23 5.15 62.15 5.22L62.15 5.22L62.15 3.81L62.15 3.81Q62.16 3.79 62.40 3.69L62.40 3.69L62.40 3.69Q62.64 3.58 63 3.46L63 3.46L63 3.46Q63.36 3.33 63.82 3.23L63.82 3.23L63.82 3.23Q64.27 3.12 64.74 3.12ZM65.63 8.68L65.63 8.68L65.63 8.68Q65.87 8.37 65.95 7.99L65.95 7.99L65.95 7.99Q66.02 7.62 66.02 7.20L66.02 7.20L65.21 7.20L65.21 7.20Q64.89 7.20 64.53 7.24L64.53 7.24L64.53 7.24Q64.16 7.28 63.85 7.41L63.85 7.41L63.85 7.41Q63.55 7.53 63.34 7.78L63.34 7.78L63.34 7.78Q63.13 8.02 63.13 8.44L63.13 8.44L63.13 8.44Q63.13 8.90 63.47 9.11L63.47 9.11L63.47 9.11Q63.81 9.32 64.32 9.32L64.32 9.32L64.32 9.32Q64.75 9.32 65.08 9.15L65.08 9.15L65.08 9.15Q65.41 8.97 65.63 8.68Z"></path></g><!----><g data-v-423bf9ae="" id="115a11ff-e686-456c-befd-a69657d3611a" transform="matrix(1.1084016072860627,0,0,1.1084016072860627,-5.451229817537104,-10.012470615073283)" stroke="none" fill="white"><path d="M35.784 45.171a2.984 2.984 0 1 0-.001 5.969 2.984 2.984 0 0 0 .001-5.969zm29.034 0a2.984 2.984 0 1 0 0 5.968 2.984 2.984 0 0 0 0-5.968zM89.4 14.458c-3.6-3.36-8.541-5.121-13.928-5.118l-.217.003c-.113-.003-.205-.001-.268-.001-5.387-.005-10.328 1.755-13.93 5.118a17.017 17.017 0 0 0-3.139 3.968 29.346 29.346 0 0 0-7.64-1.136 29.49 29.49 0 0 0-7.846 1.191 16.963 16.963 0 0 0-3.174-4.023c-3.6-3.362-8.542-5.121-13.928-5.118-.065 0-.155-.002-.27.001l-.214-.001c-5.388-.003-10.332 1.755-13.931 5.116-3.608 3.354-5.78 8.292-5.771 14.256v.029c.016 8.428 4.391 15.685 10.858 19.207a40.504 40.504 0 0 0-1.103 7.112c-.042.67-.061 1.341-.061 2.006.002 18.465 15.567 33.323 35.412 33.47 19.875-.146 35.439-15.005 35.441-33.47 0-.665-.02-1.331-.059-2.006l-1.789.108-1.787.107c.037.598.053 1.194.053 1.79.002 16.353-13.781 29.715-31.859 29.888-18.05-.173-31.833-13.535-31.831-29.888 0-.596.018-1.19.057-1.782.996-17.405 15.538-34.418 31.804-34.414 16.236-.004 30.781 17.009 31.777 34.406l3.576-.216c-.153-2.43-.54-4.85-1.133-7.224 6.363-3.559 10.658-10.75 10.672-19.095v-.03c.01-5.962-2.162-10.9-5.772-14.254zM21.665 34.803c-1.778-1.223-3.012-3.4-3.026-6.077l.003-.012c.084-4.085 2.563-6.075 6.337-6.189h.081l.067.003.07-.005v.002c2.312.07 4.124.864 5.204 2.404-3.37 2.754-6.331 6.114-8.736 9.874zm11.627-12.015a8.577 8.577 0 0 0-1.105-1.26c-1.84-1.716-4.335-2.588-6.989-2.585-.014 0-.059-.001-.137.001l-.082-.001c-2.656-.002-5.151.87-6.991 2.585-1.831 1.696-2.924 4.212-2.928 7.123l-.002.075c.006 3.873 1.894 7.303 4.79 9.19a44.23 44.23 0 0 0-2.807 6.495c-4.91-2.994-8.286-8.737-8.313-15.627l.002-.03v-.04c.085-10.134 6.879-15.677 16.118-15.791.062 0 .133 0 .216.002h.044l.046-.002h.178c5.954.073 10.875 2.419 13.654 6.784a34.004 34.004 0 0 0-5.694 3.081zm45.51 11.916c-2.428-3.773-5.413-7.143-8.812-9.895 1.094-1.461 2.873-2.217 5.132-2.284l.002-.003.07.005.066-.002h.078c3.773.112 6.254 2.105 6.338 6.189h.004l-.004.011c-.013 2.603-1.176 4.738-2.874 5.979zm12.788-5.96c-.014 6.825-3.311 12.537-8.134 15.568a44.31 44.31 0 0 0-2.842-6.523c2.806-1.908 4.637-5.263 4.646-9.064v-.011c.012-2.938-1.084-5.478-2.932-7.186-1.84-1.718-4.334-2.589-6.99-2.587l-.084.001c-.074-.003-.121-.001-.133-.001-2.656-.002-5.152.869-6.988 2.587a8.443 8.443 0 0 0-1.028 1.163 34.071 34.071 0 0 0-5.722-3.058c2.787-4.317 7.685-6.639 13.605-6.712.088 0 .146 0 .178.002h.09l.217-.002c9.236.115 16.033 5.658 16.117 15.792v.031zM50.326 45.368l-.062.001-.06-.001c-3.204-.008-6.134 1.501-8.155 3.969-2.018 2.448-3.199 5.817-3.217 9.682-.005.073-.003.102-.003.104-.005 3.89 1.207 7.112 3.3 9.335 2.079 2.224 4.98 3.38 8.034 3.38h.148l.046-.004c3.057.004 5.963-1.152 8.045-3.376 2.094-2.226 3.305-5.445 3.301-9.335v-.003h.002c0-3.91-1.186-7.313-3.221-9.783-2.025-2.468-4.955-3.978-8.158-3.969zm7.795 13.754c-.117 6.308-3.461 9.03-7.782 9.131-.042 0-.076 0-.103.002h-.044c-4.32-.103-7.665-2.827-7.782-9.133v-.003c.059-6.41 3.703-10.148 7.774-10.171l.029.002.102-.002h.011c4.078.01 7.738 3.749 7.795 10.171v.003z"></path></g><!----></svg>