<svg width="110" height="15" viewBox="0 0 110 15" fill="none" xmlns="http://www.w3.org/2000/svg">
<path d="M2.9492 12.374C3.09759 12.272 3.2738 12.1421 3.47783 11.9845C3.69114 11.8175 3.90445 11.6413 4.11775 11.4558C4.33106 11.2704 4.53046 11.0756 4.71594 10.8716C4.90143 10.6675 5.04518 10.4728 5.14719 10.2873C5.25848 10.0925 5.31413 9.91168 5.31413 9.74475C5.31413 9.57781 5.23066 9.4387 5.06372 9.32741C4.76695 9.32741 4.44235 9.34132 4.08993 9.36914C3.73751 9.38769 3.38509 9.39697 3.03267 9.39697C2.68025 9.38769 2.3371 9.35523 2.00323 9.29959C1.67863 9.24394 1.3865 9.14192 1.12682 8.99354C0.86714 8.84515 0.65847 8.63648 0.500808 8.36753C0.35242 8.0893 0.278227 7.73688 0.278227 7.31027C0.278227 6.80946 0.370969 6.35966 0.556453 5.96087C0.751212 5.5528 1.00625 5.19574 1.32158 4.88969C1.6369 4.57437 1.98932 4.30078 2.37884 4.06893C2.77763 3.8278 3.17642 3.62376 3.57521 3.45683C3.81634 3.52175 4.03892 3.63767 4.24296 3.80461C4.44699 3.97155 4.6232 4.15703 4.77159 4.36106C4.70667 4.5651 4.57683 4.72276 4.38207 4.83405C4.19658 4.94534 3.97864 5.04272 3.72824 5.12619C3.48711 5.20966 3.23207 5.29776 2.96311 5.3905C2.69416 5.48324 2.44839 5.60845 2.22581 5.76611C2.01251 5.9145 1.83166 6.11389 1.68327 6.3643C1.53488 6.60543 1.46069 6.92539 1.46069 7.32418C1.46069 7.62095 1.53488 7.8389 1.68327 7.97801C1.83166 8.11712 2.02642 8.2145 2.26755 8.27015C2.50868 8.31652 2.78227 8.33507 3.08832 8.32579C3.39436 8.30724 3.70505 8.28406 4.02037 8.25624C4.34497 8.22841 4.6603 8.2145 4.96634 8.2145C5.27239 8.20523 5.54598 8.24233 5.78711 8.32579C6.02824 8.39999 6.21836 8.52519 6.35748 8.7014C6.50587 8.87761 6.58006 9.13729 6.58006 9.48043C6.58006 9.62882 6.52905 9.81894 6.42703 10.0508C6.33429 10.2827 6.20445 10.5331 6.03752 10.802C5.87986 11.0617 5.68973 11.3214 5.46715 11.581C5.25385 11.8407 5.02663 12.0772 4.7855 12.2905C4.55364 12.4946 4.31715 12.6661 4.07602 12.8052C3.84416 12.9351 3.62622 13 3.42219 13C3.22743 13 3.09759 12.9304 3.03267 12.7913C2.97702 12.6522 2.9492 12.5131 2.9492 12.374ZM6.83046 5.98869C6.83046 5.96087 6.8351 5.93768 6.84437 5.91913C6.84437 5.90058 6.84901 5.8774 6.85829 5.84958C6.89538 5.80321 6.95103 5.74292 7.02522 5.66873C7.09942 5.59454 7.14579 5.55744 7.16434 5.55744H9.96051C9.96051 5.45542 9.9466 5.29312 9.91878 5.07054C9.89096 4.84796 9.86313 4.60219 9.83531 4.33324C9.81676 4.06429 9.81213 3.78606 9.8214 3.49856C9.83067 3.20179 9.86777 2.93747 9.93269 2.70562C10.0069 2.46449 10.1182 2.26973 10.2666 2.12134C10.4242 1.96368 10.6422 1.88485 10.9204 1.88485C10.9204 2.82154 10.9853 3.57276 11.1152 4.13848C11.245 4.70421 11.4166 5.1401 11.6299 5.44615C11.8525 5.7522 12.1029 5.95159 12.3811 6.04433C12.6593 6.13708 12.9422 6.17881 13.2297 6.16954C13.5265 6.15099 13.814 6.10462 14.0922 6.03042C14.3704 5.95623 14.6162 5.90522 14.8295 5.8774C15.0521 5.84958 15.2283 5.87276 15.3581 5.94696C15.4879 6.01188 15.5529 6.17417 15.5529 6.43385C15.5529 6.62861 15.5065 6.76772 15.4138 6.85119C15.3303 6.93466 15.1633 6.99958 14.9129 7.04595C14.8388 7.05522 14.7136 7.07377 14.5373 7.1016C14.3704 7.12014 14.1803 7.13869 13.967 7.15724C13.7537 7.17579 13.5265 7.19898 13.2853 7.2268C13.0442 7.24535 12.817 7.26389 12.6037 7.28244C12.3904 7.30099 12.1956 7.3149 12.0194 7.32418C11.8432 7.32418 11.7133 7.32418 11.6299 7.32418C11.6299 7.37055 11.6252 7.44938 11.616 7.56067C11.6067 7.67196 11.602 7.74615 11.602 7.78325C11.602 8.19132 11.667 8.59011 11.7968 8.97963C11.9266 9.35987 12.0658 9.74011 12.2141 10.1204C12.3718 10.5006 12.5156 10.8808 12.6454 11.2611C12.7752 11.6413 12.8402 12.0355 12.8402 12.4435C12.8402 12.5177 12.8309 12.5966 12.8123 12.68C12.8031 12.7542 12.7752 12.8238 12.7289 12.8887C12.6918 12.9444 12.6315 12.9861 12.548 13.0139C12.4738 13.051 12.3672 13.0464 12.2281 13C11.8756 12.9073 11.6113 12.7079 11.4351 12.4018C11.2682 12.0958 11.143 11.7341 11.0595 11.3167C10.976 10.8901 10.9204 10.4403 10.8926 9.96733C10.8647 9.49434 10.8184 9.05382 10.7535 8.64575C10.6978 8.22841 10.6051 7.87599 10.4752 7.58849C10.3454 7.29172 10.1367 7.11087 9.84922 7.04595L7.16434 6.43385C7.12724 6.43385 7.07159 6.39676 6.9974 6.32256C6.92321 6.23909 6.87683 6.17881 6.85829 6.14171C6.84901 6.12317 6.84437 6.09998 6.84437 6.07216C6.8351 6.05361 6.83046 6.02579 6.83046 5.98869ZM22.0634 11.2054C21.7109 11.4466 21.4049 11.6645 21.1452 11.8593C20.8948 12.0448 20.6491 12.2024 20.4079 12.3323C20.1668 12.4621 19.9071 12.5595 19.6289 12.6244C19.3599 12.6893 19.0261 12.7218 18.6273 12.7218C17.7648 12.7218 17.1248 12.4946 16.7075 12.0401C16.2902 11.5764 16.0815 10.8901 16.0815 9.98124C16.0815 9.62882 16.1279 9.26249 16.2206 8.88225C16.3134 8.502 16.4478 8.1264 16.624 7.75543C16.8095 7.37519 17.0275 7.01813 17.2779 6.68426C17.5283 6.34111 17.8111 6.0397 18.1265 5.78002C18.4418 5.52034 18.7757 5.31631 19.1281 5.16792C19.4898 5.01026 19.87 4.93143 20.2688 4.93143C20.9366 4.99635 21.4605 5.16328 21.8408 5.43224C22.221 5.69191 22.5085 6.03042 22.7033 6.44776C22.898 6.85583 23.0325 7.3149 23.1067 7.82499C23.1809 8.32579 23.2366 8.84515 23.2737 9.38305C23.32 9.92096 23.3757 10.4589 23.4406 10.9968C23.5055 11.5347 23.64 12.0308 23.844 12.4853C23.7235 12.7913 23.6075 13.0046 23.4962 13.1252C23.3942 13.255 23.2783 13.2782 23.1485 13.1948C23.0186 13.1113 22.8656 12.9073 22.6894 12.5827C22.5224 12.2581 22.3138 11.799 22.0634 11.2054ZM17.264 10.0091C17.264 10.5377 17.3613 10.9272 17.5561 11.1776C17.7601 11.4187 18.1172 11.5393 18.6273 11.5393C19.0075 11.5393 19.3692 11.4744 19.7124 11.3446C20.0648 11.2054 20.3708 11.02 20.6305 10.7881C20.8902 10.547 21.0989 10.2595 21.2565 9.9256C21.4142 9.59172 21.493 9.22076 21.493 8.81269C21.493 8.64575 21.4976 8.4139 21.5069 8.11712C21.5162 7.81107 21.4976 7.50966 21.4513 7.21289C21.4049 6.91611 21.3168 6.66107 21.187 6.44776C21.0571 6.22518 20.8624 6.11389 20.6027 6.11389C20.1204 6.11389 19.6753 6.23909 19.2672 6.4895C18.8591 6.73063 18.5067 7.04131 18.2099 7.42156C17.9132 7.8018 17.6813 8.22378 17.5144 8.68749C17.3474 9.14192 17.264 9.58245 17.264 10.0091ZM24.7204 7.15724C24.7204 7.07377 24.7251 6.99031 24.7343 6.90684C24.7436 6.8141 24.7622 6.73526 24.79 6.67034C24.8178 6.59615 24.8595 6.53587 24.9152 6.4895C24.9801 6.44313 25.0682 6.41994 25.1795 6.41994C25.2723 6.41994 25.3743 6.49413 25.4856 6.64252C25.6061 6.78164 25.7267 6.96248 25.8473 7.18506C25.9678 7.39837 26.0837 7.63486 26.195 7.89454C26.3156 8.15422 26.4176 8.39535 26.5011 8.61793C26.5938 8.83124 26.668 9.01672 26.7237 9.17438C26.7793 9.33205 26.8118 9.41551 26.821 9.42479C26.9416 9.10019 27.0761 8.74777 27.2245 8.36753C27.3729 7.98728 27.5537 7.63486 27.767 7.31027C27.9896 6.97639 28.2493 6.69817 28.546 6.47559C28.8521 6.253 29.2231 6.14171 29.659 6.14171C29.8815 6.14171 30.0902 6.17881 30.285 6.253C30.489 6.31792 30.6652 6.41994 30.8136 6.55905C30.9713 6.68889 31.0965 6.84655 31.1892 7.03204C31.2819 7.21752 31.3283 7.43083 31.3283 7.67196C31.3283 7.87599 31.2448 8.01974 31.0779 8.10321C30.9203 8.18668 30.7394 8.22841 30.5354 8.22841H30.3963L29.7981 7.63023C29.7795 7.63023 29.7656 7.62559 29.7563 7.61632C29.7378 7.61632 29.7192 7.61632 29.7007 7.61632C29.6914 7.60704 29.6775 7.6024 29.659 7.6024C29.3344 7.6024 29.0793 7.69515 28.8938 7.88063C28.7176 8.05684 28.5831 8.27942 28.4904 8.54837C28.3977 8.80805 28.3374 9.08628 28.3096 9.38305C28.291 9.67055 28.2817 9.93487 28.2817 10.176C28.2817 10.3615 28.3003 10.5516 28.3374 10.7464C28.3745 10.9318 28.4162 11.1173 28.4626 11.3028C28.509 11.479 28.5507 11.6645 28.5878 11.8593C28.6249 12.0448 28.6434 12.2395 28.6434 12.4435C28.6434 12.8331 28.4348 13.0278 28.0174 13.0278C27.7856 13.0278 27.5444 12.9073 27.294 12.6661C27.0436 12.4157 26.7932 12.1004 26.5428 11.7202C26.3017 11.3399 26.0698 10.9226 25.8473 10.4681C25.6247 10.0044 25.4299 9.55463 25.263 9.11874C25.096 8.68285 24.9616 8.2887 24.8595 7.93628C24.7668 7.58386 24.7204 7.32418 24.7204 7.15724ZM31.5231 5.98869C31.5231 5.96087 31.5277 5.93768 31.537 5.91913C31.537 5.90058 31.5416 5.8774 31.5509 5.84958C31.588 5.80321 31.6436 5.74292 31.7178 5.66873C31.792 5.59454 31.8384 5.55744 31.8569 5.55744H34.6531C34.6531 5.45542 34.6392 5.29312 34.6114 5.07054C34.5836 4.84796 34.5557 4.60219 34.5279 4.33324C34.5094 4.06429 34.5047 3.78606 34.514 3.49856C34.5233 3.20179 34.5604 2.93747 34.6253 2.70562C34.6995 2.46449 34.8108 2.26973 34.9592 2.12134C35.1168 1.96368 35.3348 1.88485 35.613 1.88485C35.613 2.82154 35.6779 3.57276 35.8078 4.13848C35.9376 4.70421 36.1092 5.1401 36.3225 5.44615C36.5451 5.7522 36.7955 5.95159 37.0737 6.04433C37.3519 6.13708 37.6348 6.17881 37.9223 6.16954C38.2191 6.15099 38.5066 6.10462 38.7848 6.03042C39.063 5.95623 39.3088 5.90522 39.5221 5.8774C39.7447 5.84958 39.9209 5.87276 40.0507 5.94696C40.1806 6.01188 40.2455 6.17417 40.2455 6.43385C40.2455 6.62861 40.1991 6.76772 40.1064 6.85119C40.0229 6.93466 39.856 6.99958 39.6056 7.04595C39.5314 7.05522 39.4062 7.07377 39.23 7.1016C39.063 7.12014 38.8729 7.13869 38.6596 7.15724C38.4463 7.17579 38.2191 7.19898 37.9779 7.2268C37.7368 7.24535 37.5096 7.26389 37.2963 7.28244C37.083 7.30099 36.8882 7.3149 36.712 7.32418C36.5358 7.32418 36.406 7.32418 36.3225 7.32418C36.3225 7.37055 36.3178 7.44938 36.3086 7.56067C36.2993 7.67196 36.2947 7.74615 36.2947 7.78325C36.2947 8.19132 36.3596 8.59011 36.4894 8.97963C36.6193 9.35987 36.7584 9.74011 36.9068 10.1204C37.0644 10.5006 37.2082 10.8808 37.338 11.2611C37.4679 11.6413 37.5328 12.0355 37.5328 12.4435C37.5328 12.5177 37.5235 12.5966 37.5049 12.68C37.4957 12.7542 37.4679 12.8238 37.4215 12.8887C37.3844 12.9444 37.3241 12.9861 37.2406 13.0139C37.1664 13.051 37.0598 13.0464 36.9207 13C36.5683 12.9073 36.3039 12.7079 36.1277 12.4018C35.9608 12.0958 35.8356 11.7341 35.7521 11.3167C35.6687 10.8901 35.613 10.4403 35.5852 9.96733C35.5574 9.49434 35.511 9.05382 35.4461 8.64575C35.3904 8.22841 35.2977 7.87599 35.1678 7.58849C35.038 7.29172 34.8293 7.11087 34.5418 7.04595L31.8569 6.43385C31.8198 6.43385 31.7642 6.39676 31.69 6.32256C31.6158 6.23909 31.5694 6.17881 31.5509 6.14171C31.5416 6.12317 31.537 6.09998 31.537 6.07216C31.5277 6.05361 31.5231 6.02579 31.5231 5.98869ZM52.8491 14.2938C52.6544 13.9321 52.4364 13.4823 52.1953 12.9444C51.9635 12.3972 51.7223 11.8314 51.4719 11.2472C51.2215 10.6536 50.9572 10.074 50.679 9.50826C50.41 8.94253 50.1364 8.451 49.8582 8.03366C49.7469 7.95019 49.5939 7.89918 49.3991 7.88063C49.2044 7.86208 49.0003 7.85744 48.787 7.86672C48.5737 7.86672 48.3604 7.86208 48.1471 7.85281C47.9431 7.83426 47.7622 7.78325 47.6046 7.69978C47.4562 7.61632 47.3449 7.48648 47.2707 7.31027C47.1965 7.13406 47.1826 6.87901 47.229 6.54514H49.5661C49.6124 6.02579 49.6913 5.51107 49.8026 5.00099C49.9139 4.4909 50.0622 4.00401 50.2477 3.5403C50.4425 3.07658 50.6743 2.64533 50.9433 2.24654C51.2122 1.84775 51.5368 1.5046 51.9171 1.2171C52.2973 0.929603 52.7332 0.702384 53.2247 0.535448C53.7256 0.368512 54.2913 0.285044 54.9219 0.285044C55.1445 0.285044 55.3671 0.34069 55.5897 0.45198C55.8123 0.553997 56.0117 0.69311 56.1879 0.86932C56.3641 1.04553 56.5032 1.24493 56.6052 1.46751C56.7165 1.69009 56.7721 1.91267 56.7721 2.13525C56.5959 2.13525 56.4383 2.10279 56.2992 2.03787C56.16 1.96368 56.0256 1.88485 55.8957 1.80138C55.7659 1.70864 55.6268 1.62517 55.4784 1.55098C55.33 1.46751 55.1631 1.42577 54.9776 1.42577C54.4211 1.42577 53.9018 1.53706 53.4195 1.75965C52.9465 1.98223 52.5292 2.279 52.1675 2.64997C51.8151 3.02094 51.5368 3.45219 51.3328 3.94372C51.1288 4.43526 51.0268 4.95461 51.0268 5.50179C51.0268 5.53889 51.0268 5.60845 51.0268 5.71046C51.036 5.80321 51.0407 5.90522 51.0407 6.01651C51.0407 6.1278 51.0407 6.23446 51.0407 6.33647C51.0499 6.43849 51.0546 6.50805 51.0546 6.54514C51.3977 6.65643 51.7826 6.7399 52.2092 6.79555C52.6358 6.85119 53.0624 6.88829 53.4891 6.90684C53.925 6.91611 54.3423 6.91147 54.7411 6.89293C55.1491 6.87438 55.5108 6.85119 55.8262 6.82337C55.854 6.85119 55.905 6.9022 55.9792 6.97639C56.0534 7.05059 56.0951 7.10623 56.1044 7.14333C56.1044 7.17115 56.109 7.1897 56.1183 7.19898C56.1369 7.25462 56.1461 7.28244 56.1461 7.28244C56.1461 7.4772 56.0441 7.63023 55.8401 7.74152C55.636 7.85281 55.3764 7.93628 55.061 7.99192C54.7457 8.03829 54.3933 8.07075 54.0038 8.0893C53.6235 8.10785 53.2526 8.1264 52.8909 8.14495C52.5385 8.15422 52.2185 8.17277 51.931 8.20059C51.6528 8.21914 51.458 8.26087 51.3467 8.32579C51.4673 8.88225 51.6806 9.42015 51.9866 9.93951C52.302 10.4589 52.6219 10.9782 52.9465 11.4976C53.2711 12.0169 53.5586 12.5409 53.809 13.0696C54.0594 13.5982 54.1846 14.1407 54.1846 14.6972C54.1475 14.6972 54.0594 14.6972 53.9203 14.6972C53.7905 14.7065 53.6514 14.7018 53.503 14.6833C53.3546 14.6647 53.2108 14.623 53.0717 14.5581C52.9419 14.5024 52.8677 14.4143 52.8491 14.2938ZM57.0086 10.176C57.0086 9.601 57.1431 9.06773 57.4121 8.5762C57.681 8.07539 58.0334 7.64878 58.4693 7.29635C58.9145 6.93466 59.4107 6.6518 59.9578 6.44776C60.5143 6.24373 61.0754 6.14171 61.6411 6.14171C61.9564 6.14171 62.2347 6.24373 62.4758 6.44776C62.7262 6.6518 62.9349 6.9022 63.1018 7.19898C63.2687 7.48648 63.3939 7.79253 63.4774 8.11712C63.5701 8.44172 63.6165 8.72458 63.6165 8.96571C63.6165 9.48507 63.4913 9.99052 63.2409 10.482C62.9905 10.9643 62.6659 11.3956 62.2671 11.7758C61.8683 12.1468 61.4185 12.4482 60.9177 12.68C60.4169 12.9119 59.9161 13.0278 59.4153 13.0278C58.9701 13.0278 58.5945 12.9536 58.2885 12.8052C57.9824 12.6476 57.7367 12.4435 57.5512 12.1931C57.3657 11.9335 57.2266 11.6321 57.1338 11.2889C57.0504 10.9365 57.0086 10.5655 57.0086 10.176ZM58.1911 10.3151C58.1911 10.5562 58.2096 10.7696 58.2467 10.955C58.2931 11.1312 58.3673 11.2843 58.4693 11.4141C58.5806 11.5439 58.7244 11.646 58.9006 11.7202C59.0768 11.7851 59.2947 11.8175 59.5544 11.8175C59.8976 11.8175 60.2407 11.7248 60.5838 11.5393C60.927 11.3446 61.233 11.1034 61.502 10.8159C61.7802 10.5191 62.0028 10.1945 62.1697 9.84213C62.3367 9.48971 62.4201 9.14656 62.4201 8.81269C62.4201 8.6643 62.4062 8.502 62.3784 8.32579C62.3506 8.14958 62.3042 7.98728 62.2393 7.8389C62.1744 7.69051 62.0816 7.56531 61.9611 7.46329C61.8405 7.36127 61.6875 7.31027 61.502 7.31027C61.3351 7.31027 61.1357 7.36591 60.9038 7.4772C60.6812 7.58849 60.4447 7.73224 60.1943 7.90845C59.9532 8.08466 59.7121 8.28406 59.4709 8.50664C59.2391 8.72922 59.0258 8.9518 58.831 9.17438C58.6363 9.39697 58.4786 9.61027 58.358 9.81431C58.2467 10.0183 58.1911 10.1853 58.1911 10.3151ZM64.1591 7.15724C64.1591 7.07377 64.1637 6.99031 64.173 6.90684C64.1822 6.8141 64.2008 6.73526 64.2286 6.67034C64.2564 6.59615 64.2982 6.53587 64.3538 6.4895C64.4187 6.44313 64.5068 6.41994 64.6181 6.41994C64.7109 6.41994 64.8129 6.49413 64.9242 6.64252C65.0447 6.78164 65.1653 6.96248 65.2859 7.18506C65.4064 7.39837 65.5224 7.63486 65.6337 7.89454C65.7542 8.15422 65.8562 8.39535 65.9397 8.61793C66.0324 8.83124 66.1066 9.01672 66.1623 9.17438C66.2179 9.33205 66.2504 9.41551 66.2597 9.42479C66.3802 9.10019 66.5147 8.74777 66.6631 8.36753C66.8115 7.98728 66.9923 7.63486 67.2056 7.31027C67.4282 6.97639 67.6879 6.69817 67.9847 6.47559C68.2907 6.253 68.6617 6.14171 69.0976 6.14171C69.3202 6.14171 69.5288 6.17881 69.7236 6.253C69.9276 6.31792 70.1038 6.41994 70.2522 6.55905C70.4099 6.68889 70.5351 6.84655 70.6278 7.03204C70.7206 7.21752 70.7669 7.43083 70.7669 7.67196C70.7669 7.87599 70.6835 8.01974 70.5165 8.10321C70.3589 8.18668 70.178 8.22841 69.974 8.22841H69.8349L69.2367 7.63023C69.2181 7.63023 69.2042 7.62559 69.195 7.61632C69.1764 7.61632 69.1579 7.61632 69.1393 7.61632C69.13 7.60704 69.1161 7.6024 69.0976 7.6024C68.773 7.6024 68.5179 7.69515 68.3325 7.88063C68.1562 8.05684 68.0218 8.27942 67.929 8.54837C67.8363 8.80805 67.776 9.08628 67.7482 9.38305C67.7296 9.67055 67.7204 9.93487 67.7204 10.176C67.7204 10.3615 67.7389 10.5516 67.776 10.7464C67.8131 10.9318 67.8548 11.1173 67.9012 11.3028C67.9476 11.479 67.9893 11.6645 68.0264 11.8593C68.0635 12.0448 68.0821 12.2395 68.0821 12.4435C68.0821 12.8331 67.8734 13.0278 67.456 13.0278C67.2242 13.0278 66.9831 12.9073 66.7327 12.6661C66.4822 12.4157 66.2318 12.1004 65.9814 11.7202C65.7403 11.3399 65.5085 10.9226 65.2859 10.4681C65.0633 10.0044 64.8685 9.55463 64.7016 9.11874C64.5347 8.68285 64.4002 8.2887 64.2982 7.93628C64.2054 7.58386 64.1591 7.32418 64.1591 7.15724ZM83.3428 14.2938C83.148 13.9321 82.9301 13.4823 82.6889 12.9444C82.4571 12.3972 82.216 11.8314 81.9656 11.2472C81.7152 10.6536 81.4508 10.074 81.1726 9.50826C80.9037 8.94253 80.6301 8.451 80.3518 8.03366C80.2406 7.95019 80.0875 7.89918 79.8928 7.88063C79.698 7.86208 79.494 7.85744 79.2807 7.86672C79.0674 7.86672 78.8541 7.86208 78.6407 7.85281C78.4367 7.83426 78.2559 7.78325 78.0982 7.69978C77.9498 7.61632 77.8385 7.48648 77.7643 7.31027C77.6901 7.13406 77.6762 6.87901 77.7226 6.54514H80.0597C80.1061 6.02579 80.1849 5.51107 80.2962 5.00099C80.4075 4.4909 80.5559 4.00401 80.7414 3.5403C80.9361 3.07658 81.168 2.64533 81.4369 2.24654C81.7059 1.84775 82.0305 1.5046 82.4107 1.2171C82.791 0.929603 83.2269 0.702384 83.7184 0.535448C84.2192 0.368512 84.7849 0.285044 85.4156 0.285044C85.6381 0.285044 85.8607 0.34069 86.0833 0.45198C86.3059 0.553997 86.5053 0.69311 86.6815 0.86932C86.8577 1.04553 86.9968 1.24493 87.0988 1.46751C87.2101 1.69009 87.2658 1.91267 87.2658 2.13525C87.0896 2.13525 86.9319 2.10279 86.7928 2.03787C86.6537 1.96368 86.5192 1.88485 86.3894 1.80138C86.2595 1.70864 86.1204 1.62517 85.972 1.55098C85.8236 1.46751 85.6567 1.42577 85.4712 1.42577C84.9148 1.42577 84.3954 1.53706 83.9131 1.75965C83.4402 1.98223 83.0228 2.279 82.6611 2.64997C82.3087 3.02094 82.0305 3.45219 81.8264 3.94372C81.6224 4.43526 81.5204 4.95461 81.5204 5.50179C81.5204 5.53889 81.5204 5.60845 81.5204 5.71046C81.5297 5.80321 81.5343 5.90522 81.5343 6.01651C81.5343 6.1278 81.5343 6.23446 81.5343 6.33647C81.5436 6.43849 81.5482 6.50805 81.5482 6.54514C81.8914 6.65643 82.2762 6.7399 82.7029 6.79555C83.1295 6.85119 83.5561 6.88829 83.9827 6.90684C84.4186 6.91611 84.8359 6.91147 85.2347 6.89293C85.6428 6.87438 86.0045 6.85119 86.3198 6.82337C86.3476 6.85119 86.3986 6.9022 86.4728 6.97639C86.547 7.05059 86.5888 7.10623 86.598 7.14333C86.598 7.17115 86.6027 7.1897 86.6119 7.19898C86.6305 7.25462 86.6398 7.28244 86.6398 7.28244C86.6398 7.4772 86.5377 7.63023 86.3337 7.74152C86.1297 7.85281 85.87 7.93628 85.5547 7.99192C85.2394 8.03829 84.8869 8.07075 84.4974 8.0893C84.1172 8.10785 83.7462 8.1264 83.3845 8.14495C83.0321 8.15422 82.7121 8.17277 82.4246 8.20059C82.1464 8.21914 81.9516 8.26087 81.8404 8.32579C81.9609 8.88225 82.1742 9.42015 82.4803 9.93951C82.7956 10.4589 83.1156 10.9782 83.4402 11.4976C83.7648 12.0169 84.0523 12.5409 84.3027 13.0696C84.5531 13.5982 84.6783 14.1407 84.6783 14.6972C84.6412 14.6972 84.5531 14.6972 84.414 14.6972C84.2841 14.7065 84.145 14.7018 83.9966 14.6833C83.8482 14.6647 83.7045 14.623 83.5654 14.5581C83.4355 14.5024 83.3613 14.4143 83.3428 14.2938ZM87.5023 7.15724C87.5023 7.07377 87.5069 6.99031 87.5162 6.90684C87.5254 6.8141 87.544 6.73526 87.5718 6.67034C87.5996 6.59615 87.6414 6.53587 87.697 6.4895C87.7619 6.44313 87.85 6.41994 87.9613 6.41994C88.0541 6.41994 88.1561 6.49413 88.2674 6.64252C88.388 6.78164 88.5085 6.96248 88.6291 7.18506C88.7496 7.39837 88.8656 7.63486 88.9769 7.89454C89.0974 8.15422 89.1994 8.39535 89.2829 8.61793C89.3757 8.83124 89.4498 9.01672 89.5055 9.17438C89.5611 9.33205 89.5936 9.41551 89.6029 9.42479C89.7234 9.10019 89.8579 8.74777 90.0063 8.36753C90.1547 7.98728 90.3355 7.63486 90.5488 7.31027C90.7714 6.97639 91.0311 6.69817 91.3279 6.47559C91.6339 6.253 92.0049 6.14171 92.4408 6.14171C92.6634 6.14171 92.872 6.17881 93.0668 6.253C93.2708 6.31792 93.447 6.41994 93.5954 6.55905C93.7531 6.68889 93.8783 6.84655 93.971 7.03204C94.0638 7.21752 94.1101 7.43083 94.1101 7.67196C94.1101 7.87599 94.0267 8.01974 93.8597 8.10321C93.7021 8.18668 93.5212 8.22841 93.3172 8.22841H93.1781L92.5799 7.63023C92.5614 7.63023 92.5474 7.62559 92.5382 7.61632C92.5196 7.61632 92.5011 7.61632 92.4825 7.61632C92.4732 7.60704 92.4593 7.6024 92.4408 7.6024C92.1162 7.6024 91.8611 7.69515 91.6757 7.88063C91.4995 8.05684 91.365 8.27942 91.2722 8.54837C91.1795 8.80805 91.1192 9.08628 91.0914 9.38305C91.0728 9.67055 91.0636 9.93487 91.0636 10.176C91.0636 10.3615 91.0821 10.5516 91.1192 10.7464C91.1563 10.9318 91.198 11.1173 91.2444 11.3028C91.2908 11.479 91.3325 11.6645 91.3696 11.8593C91.4067 12.0448 91.4253 12.2395 91.4253 12.4435C91.4253 12.8331 91.2166 13.0278 90.7992 13.0278C90.5674 13.0278 90.3263 12.9073 90.0759 12.6661C89.8255 12.4157 89.5751 12.1004 89.3246 11.7202C89.0835 11.3399 88.8517 10.9226 88.6291 10.4681C88.4065 10.0044 88.2117 9.55463 88.0448 9.11874C87.8779 8.68285 87.7434 8.2887 87.6414 7.93628C87.5486 7.58386 87.5023 7.32418 87.5023 7.15724ZM94.611 9.13265C94.611 8.63184 94.6712 8.13103 94.7918 7.63023C94.9124 7.12942 95.1025 6.67962 95.3622 6.28083C95.6311 5.88204 95.9743 5.55744 96.3916 5.30703C96.8182 5.05663 97.3329 4.93143 97.9358 4.93143C98.2789 4.93143 98.5803 4.99635 98.84 5.12619C99.0997 5.24675 99.3176 5.40905 99.4938 5.61308C99.67 5.81712 99.7999 6.05825 99.8834 6.33647C99.9761 6.60543 100.022 6.88829 100.022 7.18506C100.022 7.65805 99.9112 8.11712 99.6886 8.56229C99.4753 9.00745 99.1832 9.4016 98.8122 9.74475C98.4505 10.0786 98.0331 10.3337 97.5602 10.5099C97.0872 10.6768 96.6049 10.7139 96.1134 10.6212C96.1227 10.8901 96.2108 11.1081 96.3777 11.275C96.5539 11.4327 96.7626 11.5532 97.0037 11.6367C97.2448 11.7202 97.4952 11.7758 97.7549 11.8036C98.0146 11.8222 98.2465 11.8314 98.4505 11.8314C98.6638 11.8314 98.8632 11.8129 99.0487 11.7758C99.2342 11.7387 99.4196 11.697 99.6051 11.6506C99.7906 11.6042 99.9761 11.5625 100.162 11.5254C100.356 11.4883 100.56 11.4698 100.774 11.4698C100.857 11.4698 100.941 11.4744 101.024 11.4837C101.108 11.4929 101.186 11.5161 101.261 11.5532C101.335 11.581 101.395 11.6321 101.441 11.7062C101.488 11.7712 101.511 11.8546 101.511 11.9567C101.511 12.1329 101.446 12.2812 101.316 12.4018C101.186 12.5131 101.019 12.6105 100.815 12.694C100.621 12.7774 100.403 12.8423 100.162 12.8887C99.9205 12.9258 99.684 12.9583 99.4521 12.9861C99.2295 13.0046 99.0209 13.0139 98.8261 13.0139C98.6406 13.0232 98.5015 13.0278 98.4088 13.0278C97.8152 13.0278 97.2819 12.9351 96.8089 12.7496C96.336 12.5548 95.9372 12.2905 95.6126 11.9567C95.288 11.6135 95.0376 11.2054 94.8614 10.7325C94.6944 10.2502 94.611 9.71693 94.611 9.13265ZM96.0856 8.22841C96.0856 8.55301 96.1273 8.7895 96.2108 8.93789C96.3035 9.08628 96.5214 9.16047 96.8646 9.16047C97.1057 9.16047 97.3422 9.11874 97.5741 9.03527C97.8059 8.94253 98.0146 8.81733 98.2001 8.65966C98.3948 8.502 98.5479 8.31652 98.6592 8.10321C98.7704 7.8899 98.8261 7.65805 98.8261 7.40765C98.8261 7.26853 98.8122 7.12478 98.7844 6.97639C98.7658 6.82801 98.7194 6.69353 98.6452 6.57297C98.5711 6.44313 98.4737 6.34111 98.3531 6.26692C98.2418 6.18345 98.0934 6.14171 97.9079 6.14171C97.6297 6.14171 97.3747 6.20663 97.1428 6.33647C96.9202 6.45704 96.7301 6.61934 96.5725 6.82337C96.4148 7.01813 96.2942 7.24071 96.2108 7.49111C96.1273 7.73224 96.0856 7.97801 96.0856 8.22841ZM102.373 9.13265C102.373 8.63184 102.434 8.13103 102.554 7.63023C102.675 7.12942 102.865 6.67962 103.125 6.28083C103.394 5.88204 103.737 5.55744 104.154 5.30703C104.581 5.05663 105.095 4.93143 105.698 4.93143C106.041 4.93143 106.343 4.99635 106.603 5.12619C106.862 5.24675 107.08 5.40905 107.256 5.61308C107.433 5.81712 107.562 6.05825 107.646 6.33647C107.739 6.60543 107.785 6.88829 107.785 7.18506C107.785 7.65805 107.674 8.11712 107.451 8.56229C107.238 9.00745 106.946 9.4016 106.575 9.74475C106.213 10.0786 105.796 10.3337 105.323 10.5099C104.85 10.6768 104.367 10.7139 103.876 10.6212C103.885 10.8901 103.973 11.1081 104.14 11.275C104.316 11.4327 104.525 11.5532 104.766 11.6367C105.007 11.7202 105.258 11.7758 105.517 11.8036C105.777 11.8222 106.009 11.8314 106.213 11.8314C106.426 11.8314 106.626 11.8129 106.811 11.7758C106.997 11.7387 107.182 11.697 107.368 11.6506C107.553 11.6042 107.739 11.5625 107.924 11.5254C108.119 11.4883 108.323 11.4698 108.536 11.4698C108.62 11.4698 108.703 11.4744 108.787 11.4837C108.87 11.4929 108.949 11.5161 109.023 11.5532C109.097 11.581 109.158 11.6321 109.204 11.7062C109.25 11.7712 109.273 11.8546 109.273 11.9567C109.273 12.1329 109.209 12.2812 109.079 12.4018C108.949 12.5131 108.782 12.6105 108.578 12.694C108.383 12.7774 108.165 12.8423 107.924 12.8887C107.683 12.9258 107.446 12.9583 107.215 12.9861C106.992 13.0046 106.783 13.0139 106.589 13.0139C106.403 13.0232 106.264 13.0278 106.171 13.0278C105.578 13.0278 105.044 12.9351 104.571 12.7496C104.098 12.5548 103.7 12.2905 103.375 11.9567C103.05 11.6135 102.8 11.2054 102.624 10.7325C102.457 10.2502 102.373 9.71693 102.373 9.13265ZM103.848 8.22841C103.848 8.55301 103.89 8.7895 103.973 8.93789C104.066 9.08628 104.284 9.16047 104.627 9.16047C104.868 9.16047 105.105 9.11874 105.337 9.03527C105.568 8.94253 105.777 8.81733 105.963 8.65966C106.157 8.502 106.31 8.31652 106.422 8.10321C106.533 7.8899 106.589 7.65805 106.589 7.40765C106.589 7.26853 106.575 7.12478 106.547 6.97639C106.528 6.82801 106.482 6.69353 106.408 6.57297C106.334 6.44313 106.236 6.34111 106.116 6.26692C106.004 6.18345 105.856 6.14171 105.67 6.14171C105.392 6.14171 105.137 6.20663 104.905 6.33647C104.683 6.45704 104.493 6.61934 104.335 6.82337C104.177 7.01813 104.057 7.24071 103.973 7.49111C103.89 7.73224 103.848 7.97801 103.848 8.22841Z" fill="black"/>
</svg>
