<svg width="87" height="87" viewBox="0 0 87 87" fill="none" xmlns="http://www.w3.org/2000/svg">
<path d="M85.7059 17.8967C82.679 19.2379 79.4274 20.1442 76.009 20.5538C79.4963 18.4658 82.1715 15.1526 83.433 11.2086C80.1705 13.1443 76.5564 14.5508 72.7103 15.3048C69.629 12.0278 65.2428 9.97605 60.3853 9.97605C51.0618 9.97605 43.5 17.5378 43.5 26.8686C43.5 28.1881 43.6523 29.4713 43.935 30.7111C29.8954 30.0042 17.458 23.2798 9.12779 13.0646C7.67779 15.5658 6.84404 18.4658 6.84404 21.5543C6.84404 27.4123 9.82742 32.5852 14.355 35.6121C11.5855 35.5214 8.98279 34.7638 6.70629 33.4987V33.7162C6.70629 41.8978 12.5244 48.7237 20.2529 50.2752C18.8319 50.6594 17.342 50.8624 15.805 50.8624C14.7175 50.8624 13.6554 50.7609 12.6259 50.5652C14.7755 57.2714 21.0105 62.1579 28.4019 62.2884C22.62 66.8197 15.3374 69.5203 7.42767 69.5203C6.06467 69.5203 4.71979 69.4406 3.39667 69.2847C10.8714 74.0806 19.7454 76.8718 29.2792 76.8718C60.3454 76.8718 77.3285 51.1416 77.3285 28.8261C77.3285 28.1011 77.3104 27.3688 77.2778 26.6438C80.5765 24.2585 83.4403 21.2897 85.6987 17.9076L85.7059 17.8967Z" fill="white"/>
</svg>
